<svg xmlns="http://www.w3.org/2000/svg" version="1.1" xmlns:xlink="http://www.w3.org/1999/xlink" width="1000" height="1000"><style>
    #light-icon {
      display: inline;
    }
    #dark-icon {
      display: none;
    }

    @media (prefers-color-scheme: dark) {
      #light-icon {
        display: none;
      }
      #dark-icon {
        display: inline;
      }
    }
  </style><g id="light-icon"><svg xmlns="http://www.w3.org/2000/svg" version="1.1" xmlns:xlink="http://www.w3.org/1999/xlink" width="1000" height="1000"><g clip-path="url(#SvgjsClipPath1011)"><rect width="1000" height="1000" fill="#ffffff"></rect><g transform="matrix(21.875,0,0,21.875,150,150)"><svg xmlns="http://www.w3.org/2000/svg" version="1.1" xmlns:xlink="http://www.w3.org/1999/xlink" width="32" height="32"><svg width="32" height="32" viewBox="0 0 32 32" fill="none" xmlns="http://www.w3.org/2000/svg">
<path d="M16.5312 7.98145V9.03201L14.9062 10.657V7.16895H14.0938V10.657L12.4688 9.03201V7.98145H11.6562V14.4814C11.6574 15.1646 11.9043 15.8245 12.3518 16.3407C12.7993 16.8569 13.4176 17.1948 14.0938 17.2927V18.9502H14.9062V17.2927C15.5824 17.1948 16.2007 16.8569 16.6482 16.3407C17.0957 15.8245 17.3426 15.1646 17.3438 14.4814V7.98145H16.5312ZM14.0938 16.4717C13.6354 16.3773 13.2235 16.1279 12.9275 15.7654C12.6315 15.4029 12.4695 14.9494 12.4688 14.4814V13.4309L14.0938 15.0559V16.4717ZM14.0938 13.907L12.4688 12.282V10.1809L14.0938 11.8059V13.907ZM14.9062 11.8059L16.5312 10.1809V12.282L14.9062 13.907V11.8059ZM14.9062 16.4717V15.0559L16.5312 13.4309V14.4814C16.5305 14.9494 16.3685 15.4029 16.0725 15.7654C15.7765 16.1279 15.3646 16.3773 14.9062 16.4717Z" fill="#E3C26B"></path>
<path d="M25.1692 29.9642C25.4765 30.4231 26.0977 30.5459 26.5565 30.2386C27.0154 29.9312 27.1382 29.3101 26.8308 28.8512L25.1692 29.9642ZM19.6366 19.9078L18.8058 20.4643L25.1692 29.9642L26 29.4077L26.8308 28.8512L20.4674 19.3513L19.6366 19.9078Z" fill="#2B1D14"></path>
<path d="M21.2125 18.4555L7.7759 9.04713" stroke="#2B1D14" stroke-linecap="round"></path>
<circle cx="14.5" cy="12.5" r="8.5" stroke="#2B1D14" stroke-width="2"></circle>
</svg></svg></g></g><defs><clipPath id="SvgjsClipPath1011"><rect width="1000" height="1000" x="0" y="0" rx="350" ry="350"></rect></clipPath></defs></svg></g><g id="dark-icon"><svg xmlns="http://www.w3.org/2000/svg" version="1.1" xmlns:xlink="http://www.w3.org/1999/xlink" width="1000" height="1000"><g><g transform="matrix(31.25,0,0,31.25,0,0)"><svg xmlns="http://www.w3.org/2000/svg" version="1.1" xmlns:xlink="http://www.w3.org/1999/xlink" width="32" height="32"><svg width="32" height="32" viewBox="0 0 32 32" fill="none" xmlns="http://www.w3.org/2000/svg">
<path d="M16.5313 7.98145V9.03201L14.9063 10.657V7.16895H14.0938V10.657L12.4688 9.03201V7.98145H11.6562V14.4814C11.6574 15.1646 11.9043 15.8245 12.3518 16.3407C12.7993 16.8569 13.4176 17.1948 14.0938 17.2927V18.9502H14.9063V17.2927C15.5824 17.1948 16.2007 16.8569 16.6482 16.3407C17.0957 15.8245 17.3426 15.1646 17.3438 14.4814V7.98145H16.5313ZM14.0938 16.4717C13.6354 16.3773 13.2235 16.1279 12.9275 15.7654C12.6315 15.4029 12.4695 14.9494 12.4688 14.4814V13.4309L14.0938 15.0559V16.4717ZM14.0938 13.907L12.4688 12.282V10.1809L14.0938 11.8059V13.907ZM14.9063 11.8059L16.5313 10.1809V12.282L14.9063 13.907V11.8059ZM14.9063 16.4717V15.0559L16.5313 13.4309V14.4814C16.5305 14.9494 16.3685 15.4029 16.0725 15.7654C15.7765 16.1279 15.3646 16.3773 14.9063 16.4717Z" fill="#E3C26B"></path>
<path d="M25.1692 29.9642C25.4765 30.4231 26.0977 30.5459 26.5565 30.2385C27.0154 29.9312 27.1382 29.31 26.8308 28.8512L25.1692 29.9642ZM19.6366 19.9078L18.8058 20.4643L25.1692 29.9642L26 29.4077L26.8308 28.8512L20.4674 19.3513L19.6366 19.9078Z" fill="#F9F6ED"></path>
<path d="M21.2125 18.4555L7.7759 9.04713" stroke="#F9F6ED" stroke-linecap="round"></path>
<circle cx="14.5" cy="12.5" r="8.5" stroke="#F9F6ED" stroke-width="2"></circle>
</svg></svg></g></g></svg></g></svg>