<svg width="258" height="133" viewBox="0 0 258 133" fill="none" xmlns="http://www.w3.org/2000/svg">
<path d="M26.486 96.116C23.9713 96.116 21.32 95.8153 18.532 95.214C15.7987 94.6673 13.5027 93.7927 11.644 92.59C9.07467 90.8407 7.18867 88.5993 5.986 85.866C4.78333 83.1327 4.182 80.1533 4.182 76.928C4.182 73.7027 4.70133 70.3407 5.74 66.842C6.83333 63.3433 8.39133 59.9267 10.414 56.592C12.4367 53.2027 14.8147 50.0867 17.548 47.244C20.336 44.3467 23.452 41.8867 26.896 39.864C30.34 37.8413 34.0027 36.4473 37.884 35.682C40.344 35.19 42.6947 34.944 44.936 34.944C49.3093 34.944 52.808 35.8187 55.432 37.568C58.056 39.2627 59.368 41.4493 59.368 44.128C59.368 44.6747 59.3133 45.2213 59.204 45.768C59.1493 46.26 58.9853 46.8067 58.712 47.408C58.1107 48.9933 57.0993 50.4147 55.678 51.672C54.3113 52.8747 52.726 53.804 50.922 54.46C49.1727 55.116 47.3687 55.3893 45.51 55.28C44.6353 55.1707 43.87 54.87 43.214 54.378C42.6127 53.8313 42.312 53.1753 42.312 52.41C42.312 51.6447 42.64 50.8247 43.296 49.95C43.8973 50.1687 44.5807 50.278 45.346 50.278C46.7127 50.278 48.052 49.95 49.364 49.294C50.676 48.638 51.7693 47.736 52.644 46.588C53.5187 45.44 53.956 44.1553 53.956 42.734C53.956 40.8207 53.3 39.5633 51.988 38.962C50.676 38.306 49.2 37.978 47.56 37.978C46.4667 37.978 45.3733 38.0873 44.28 38.306C43.2413 38.47 42.394 38.634 41.738 38.798C38.622 39.618 35.588 41.2033 32.636 43.554C29.684 45.85 26.978 48.5833 24.518 51.754C22.1127 54.9247 20.09 58.2047 18.45 61.594C17.4113 63.7807 16.4547 66.432 15.58 69.548C14.7053 72.664 14.268 75.7253 14.268 78.732C14.268 80.3173 14.4047 81.848 14.678 83.324C15.006 84.7453 15.5253 86.0573 16.236 87.26C17.384 89.228 18.9693 90.5947 20.992 91.36C23.0693 92.1253 25.2287 92.508 27.47 92.508C29.1647 92.508 30.832 92.3713 32.472 92.098C34.1667 91.77 35.6973 91.36 37.064 90.868C38.8133 90.2667 40.508 89.4467 42.148 88.408C43.788 87.3147 45.2913 86.0847 46.658 84.718C48.1887 83.1327 49.4733 81.4107 50.512 79.552C51.6053 77.6933 52.316 75.7527 52.644 73.73H48.298C45.8927 73.73 43.4053 73.7573 40.836 73.812C38.2667 73.812 36.326 73.9213 35.014 74.14C35.014 74.14 35.2053 73.812 35.588 73.156C35.9707 72.4453 36.4627 71.6527 37.064 70.778C37.6653 69.8487 38.294 69.056 38.95 68.4C39.6607 67.6893 40.3167 67.334 40.918 67.334H64.944C64.5613 69.4113 63.878 70.8873 62.894 71.762C61.91 72.6367 60.68 73.2107 59.204 73.484C58.9307 74.2493 58.6573 75.0147 58.384 75.78C58.1107 76.4907 57.8373 77.0647 57.564 77.502C54.5027 83.7887 50.3207 88.4627 45.018 91.524C39.7153 94.5853 33.538 96.116 26.486 96.116ZM67.8332 93.492C66.3026 93.492 65.1546 92.9453 64.3892 91.852C63.6239 90.704 63.2412 89.1733 63.2412 87.26C63.2412 86.9867 63.2412 86.7133 63.2412 86.44C63.2412 86.1667 63.2686 85.8933 63.3232 85.62C63.5966 83.5427 64.0612 81.192 64.7172 78.568C65.4279 75.944 66.2479 73.1833 67.1772 70.286C67.7239 68.646 68.4072 66.596 69.2272 64.136C70.1019 61.6213 71.1132 58.9427 72.2612 56.1C73.4092 53.2027 74.6666 50.3327 76.0332 47.49C77.4546 44.6473 79.0126 42.078 80.7072 39.782C82.4019 37.4313 84.1786 35.5453 86.0372 34.124C87.9506 32.7027 89.9732 31.992 92.1052 31.992C93.8546 31.992 95.0572 32.4293 95.7132 33.304C96.3692 34.124 96.6972 35.108 96.6972 36.256C96.6972 37.4587 96.4786 38.6887 96.0412 39.946C95.6039 41.1487 95.1666 42.16 94.7292 42.98C93.7452 44.948 92.4606 47.162 90.8752 49.622C89.2899 52.082 87.6226 54.378 85.8732 56.51C84.8346 57.8767 83.5499 59.4073 82.0192 61.102C80.4886 62.7967 79.0399 64.3547 77.6732 65.776C76.3612 67.1973 75.4046 68.1813 74.8032 68.728L73.4912 72.5C73.1086 73.5387 72.7259 74.7687 72.3432 76.19C72.0152 77.6113 71.7146 79.0327 71.4412 80.454C71.2226 81.8207 71.0312 83.0233 70.8672 84.062C70.8126 84.2807 70.7852 84.4993 70.7852 84.718C70.7852 84.9367 70.7852 85.128 70.7852 85.292C70.7852 86.932 71.4139 87.752 72.6712 87.752C73.4366 87.752 74.3932 87.3967 75.5412 86.686C76.6346 86.03 77.6732 85.1827 78.6572 84.144C79.6959 83.0507 80.4339 82.2307 80.8712 81.684C81.9646 80.2627 83.0032 78.7593 83.9872 77.174C84.9712 75.534 85.8186 74.0307 86.5292 72.664C86.8026 72.2267 86.9939 72.008 87.1032 72.008C87.4312 72.008 87.5952 72.4727 87.5952 73.402C87.5952 73.8393 87.5132 74.3587 87.3492 74.96C87.2399 75.5067 87.0486 76.026 86.7752 76.518C86.0099 77.83 85.1079 79.2787 84.0692 80.864C83.0306 82.4493 81.9646 83.98 80.8712 85.456C80.0512 86.5493 78.9032 87.7247 77.4272 88.982C75.9512 90.2393 74.3659 91.3053 72.6712 92.18C70.9766 93.0547 69.3639 93.492 67.8332 93.492ZM76.4432 64.054C79.1766 60.8287 81.9372 57.3847 84.7252 53.722C87.5679 50.0047 89.9186 46.2327 91.7772 42.406C91.8866 42.1327 92.1326 41.586 92.5152 40.766C92.8979 39.946 93.2532 39.044 93.5812 38.06C93.9092 37.0213 94.0732 36.1467 94.0732 35.436C94.0732 34.5067 93.7179 34.042 93.0072 34.042H92.4332C91.7226 34.042 90.8752 34.534 89.8912 35.518C88.9619 36.502 88.0052 37.814 87.0212 39.454C85.7639 41.5313 84.5339 43.9367 83.3312 46.67C82.1286 49.3487 80.9532 52.1913 79.8052 55.198C78.6572 58.2047 77.5366 61.1567 76.4432 64.054ZM87.765 93.492C86.3437 93.492 85.1683 92.836 84.239 91.524C83.3643 90.1573 83.0363 88.0527 83.255 85.21C83.3643 84.0073 83.6377 82.4767 84.075 80.618C84.5123 78.7593 85.0863 76.764 85.797 74.632C86.5623 72.4453 87.4097 70.3407 88.339 68.318C89.2683 66.2407 90.2797 64.4093 91.373 62.824C91.9743 62.004 92.5757 61.512 93.177 61.348C93.833 61.1293 95.0083 61.02 96.703 61.02H100.639C99.7097 62.332 98.7257 63.972 97.687 65.94C96.6483 67.908 95.6917 69.876 94.817 71.844C93.9423 73.7573 93.259 75.37 92.767 76.682C92.6577 77.0647 92.439 77.748 92.111 78.732C91.783 79.6613 91.4823 80.7 91.209 81.848C90.9357 82.996 90.799 84.062 90.799 85.046C90.799 85.9207 90.963 86.6587 91.291 87.26C91.619 87.8613 92.2203 88.162 93.095 88.162C94.1337 88.1073 95.2543 87.4513 96.457 86.194C97.6597 84.9367 98.8623 83.324 100.065 81.356C101.268 79.388 102.443 77.338 103.591 75.206C104.794 73.0193 105.86 70.9967 106.789 69.138C107.773 67.2247 108.593 65.7487 109.249 64.71C110.069 63.4527 110.944 62.3593 111.873 61.43C112.802 60.446 113.868 59.954 115.071 59.954C115.508 59.954 116.082 59.9813 116.793 60.036C117.558 60.036 118.296 60.036 119.007 60.036C119.772 60.036 120.292 60.0087 120.565 59.954C120.237 60.1727 119.854 60.61 119.417 61.266C118.98 61.922 118.542 62.6053 118.105 63.316C117.722 63.972 117.422 64.5187 117.203 64.956C115.782 67.7987 114.388 70.6687 113.021 73.566C111.709 76.4087 110.725 79.1147 110.069 81.684C109.796 82.668 109.659 83.5153 109.659 84.226C109.659 85.866 110.206 86.686 111.299 86.686C112.064 86.686 113.158 86.1393 114.579 85.046C115.672 84.1713 116.738 83.0507 117.777 81.684C118.925 80.2627 119.991 78.732 120.975 77.092C121.959 75.452 122.806 73.9487 123.517 72.582C123.736 72.1993 123.927 72.008 124.091 72.008C124.419 72.008 124.583 72.4453 124.583 73.32C124.583 73.7573 124.501 74.2767 124.337 74.878C124.228 75.4247 124.009 75.9713 123.681 76.518C122.916 77.83 122.014 79.2787 120.975 80.864C119.936 82.3947 118.87 83.9253 117.777 85.456C117.012 86.44 116 87.5607 114.743 88.818C113.486 90.0753 112.146 91.1687 110.725 92.098C109.358 93.0273 108.019 93.492 106.707 93.492C105.942 93.492 105.231 93.328 104.575 93C103.919 92.7267 103.372 92.1527 102.935 91.278C102.388 90.13 102.115 88.572 102.115 86.604C102.115 86.0027 102.142 85.374 102.197 84.718C102.252 84.0073 102.334 83.2967 102.443 82.586C101.623 83.734 100.748 84.8 99.819 85.784C98.9443 86.768 98.0423 87.752 97.113 88.736C95.0357 90.8133 93.259 92.1253 91.783 92.672C90.3617 93.2187 89.0223 93.492 87.765 93.492ZM127.225 93.492C125.64 93.492 124.437 92.8633 123.617 91.606C123.234 91.0047 122.961 90.294 122.797 89.474C122.633 88.654 122.551 87.8067 122.551 86.932C122.551 86.0573 122.606 85.1827 122.715 84.308C122.824 83.3787 122.961 82.4767 123.125 81.602C123.398 80.1807 123.699 78.896 124.027 77.748C124.41 76.5453 124.792 75.3973 125.175 74.304V74.222C124.738 75.042 124.191 75.944 123.535 76.928C122.879 77.8573 122.414 78.5407 122.141 78.978C121.758 79.5793 121.458 79.88 121.239 79.88C121.02 79.88 120.911 79.634 120.911 79.142C120.911 78.0487 121.239 76.846 121.895 75.534C122.332 74.6593 122.934 73.5387 123.699 72.172C124.464 70.7507 125.257 69.22 126.077 67.58C126.897 65.94 127.608 64.3547 128.209 62.824H122.715C122.442 62.824 122.387 62.6053 122.551 62.168C122.715 61.7307 122.961 61.3207 123.289 60.938C123.617 60.5007 123.863 60.282 124.027 60.282H130.259C130.86 58.8607 131.544 57.33 132.309 55.69C133.129 54.05 134.031 52.5193 135.015 51.098C136.054 49.622 137.174 48.4193 138.377 47.49C139.58 46.5607 140.864 46.096 142.231 46.096C142.832 46.096 143.57 46.096 144.445 46.096C145.374 46.096 145.948 46.0687 146.167 46.014C145.019 46.7793 143.68 48.31 142.149 50.606C140.618 52.8473 138.951 56.0727 137.147 60.282H145.429C145.593 60.282 145.538 60.5007 145.265 60.938C144.992 61.3207 144.636 61.7307 144.199 62.168C143.816 62.6053 143.434 62.824 143.051 62.824H135.999C135.288 64.628 134.496 66.596 133.621 68.728C132.801 70.86 132.036 72.9647 131.325 75.042C130.669 77.0647 130.177 78.9233 129.849 80.618C129.63 81.6567 129.521 82.6133 129.521 83.488C129.521 85.5653 130.177 86.604 131.489 86.604C132.364 86.604 133.402 86.1667 134.605 85.292C135.808 84.4173 137.01 83.2147 138.213 81.684C139.306 80.2627 140.345 78.732 141.329 77.092C142.368 75.452 143.242 73.9487 143.953 72.582C144.172 72.1993 144.363 72.008 144.527 72.008C144.855 72.008 145.019 72.4453 145.019 73.32C145.019 73.7573 144.937 74.2767 144.773 74.878C144.664 75.4247 144.445 75.9713 144.117 76.518C143.352 77.83 142.45 79.2787 141.411 80.864C140.372 82.3947 139.306 83.9253 138.213 85.456C137.448 86.44 136.436 87.5607 135.179 88.818C133.976 90.0753 132.664 91.1687 131.243 92.098C129.876 93.0273 128.537 93.492 127.225 93.492ZM160.109 91.852C157.594 93.164 154.943 93.82 152.155 93.82C149.804 93.82 147.618 93.246 145.595 92.098C143.572 90.95 142.206 89.1187 141.495 86.604C141.167 85.456 141.003 84.2533 141.003 82.996C141.003 80.9187 141.358 78.7867 142.069 76.6C142.834 74.3587 143.818 72.3087 145.021 70.45C146.88 67.5527 149.23 65.1473 152.073 63.234C154.916 61.3207 158.059 60.364 161.503 60.364C164.072 60.364 166.068 61.02 167.489 62.332C168.91 63.644 169.621 65.1747 169.621 66.924C169.621 69.0013 168.91 70.8327 167.489 72.418C166.122 73.9487 164.318 75.124 162.077 75.944C160.984 76.3267 159.808 76.6273 158.551 76.846C157.348 77.01 156.2 77.092 155.107 77.092C152.866 77.092 151.144 76.7913 149.941 76.19C148.902 78.8687 148.383 81.3287 148.383 83.57C148.383 85.5927 148.848 87.26 149.777 88.572C150.706 89.8293 152.182 90.458 154.205 90.458C155.9 90.458 157.567 89.9933 159.207 89.064C160.902 88.1347 162.46 86.9867 163.881 85.62C165.357 84.2533 166.587 82.9413 167.571 81.684C168.336 80.7547 168.992 79.88 169.539 79.06C170.086 78.24 170.66 77.3107 171.261 76.272C171.862 75.1787 172.573 73.8393 173.393 72.254C173.612 71.8713 173.803 71.68 173.967 71.68C174.295 71.68 174.459 72.1173 174.459 72.992C174.459 73.484 174.377 74.0307 174.213 74.632C174.104 75.1787 173.885 75.7527 173.557 76.354C172.792 77.7207 171.862 79.224 170.769 80.864C169.73 82.4493 168.664 83.98 167.571 85.456C166.587 86.768 165.466 87.9707 164.209 89.064C162.952 90.1573 161.585 91.0867 160.109 91.852ZM152.647 74.386C152.92 74.55 153.221 74.6593 153.549 74.714C153.877 74.7687 154.205 74.796 154.533 74.796C155.626 74.796 156.72 74.55 157.813 74.058C158.906 73.5113 159.836 72.9647 160.601 72.418C161.858 71.5433 162.924 70.5047 163.799 69.302C164.674 68.0993 165.166 66.7327 165.275 65.202C165.33 64.546 165.166 63.9993 164.783 63.562C164.455 63.07 163.854 62.824 162.979 62.824C162.542 62.824 161.995 62.906 161.339 63.07C160.464 63.2887 159.59 63.6987 158.715 64.3C157.84 64.9013 156.993 65.612 156.173 66.432C155.9 66.7053 155.408 67.252 154.697 68.072C154.041 68.8373 153.412 69.712 152.811 70.696C152.21 71.6253 151.909 72.4453 151.909 73.156C151.909 73.7573 152.155 74.1673 152.647 74.386ZM192.204 93.492C190.345 93.492 189.06 92.9453 188.35 91.852C187.694 90.704 187.366 89.392 187.366 87.916C187.366 86.112 187.721 83.9527 188.432 81.438C189.142 78.8687 189.962 76.2993 190.892 73.73C191.876 71.106 192.75 68.7827 193.516 66.76C193.734 66.268 193.844 65.7487 193.844 65.202C193.844 64.6007 193.652 64.1633 193.27 63.89C192.887 63.6167 192.395 63.48 191.794 63.48C190.919 63.48 189.935 63.7533 188.842 64.3C187.147 65.1747 185.534 66.5687 184.004 68.482C182.473 70.3953 181.243 72.3907 180.314 74.468C179.275 76.8187 178.346 79.1693 177.526 81.52C176.706 83.8707 176.05 85.784 175.558 87.26C175.23 88.1893 174.929 89.146 174.656 90.13C174.382 91.114 174.109 92.0707 173.836 93H165.882C165.882 93 166.073 92.3167 166.456 90.95C166.784 89.5833 167.221 88.2167 167.768 86.85C168.697 84.4447 169.626 82.0393 170.556 79.634C171.54 77.2287 172.387 75.0967 173.098 73.238C173.316 72.6913 173.644 71.68 174.082 70.204C174.574 68.6733 175.011 67.088 175.394 65.448C175.831 63.808 176.05 62.4687 176.05 61.43C176.05 60.8287 175.968 60.4187 175.804 60.2C176.296 60.2 176.842 60.2 177.444 60.2C178.1 60.1453 178.701 60.118 179.248 60.118C180.013 60.118 180.724 60.1453 181.38 60.2C182.09 60.2547 182.555 60.3913 182.774 60.61C183.43 61.102 183.758 61.8127 183.758 62.742C183.758 63.398 183.621 64.054 183.348 64.71C183.129 65.366 182.965 65.9127 182.856 66.35C183.621 65.6393 184.414 64.956 185.234 64.3C186.054 63.644 187.311 62.7967 189.006 61.758C189.99 61.1567 191.22 60.6647 192.696 60.282C194.172 59.8993 195.511 59.708 196.714 59.708C199.83 59.708 201.388 61.1567 201.388 64.054C201.388 64.546 201.333 65.0927 201.224 65.694C201.169 66.2953 201.005 66.9513 200.732 67.662C200.458 68.5367 200.021 69.7393 199.42 71.27C198.818 72.8007 198.19 74.4407 197.534 76.19C196.932 77.8847 196.413 79.4973 195.976 81.028C195.538 82.5587 195.32 83.7887 195.32 84.718C195.32 86.03 195.812 86.686 196.796 86.686C197.67 86.686 198.764 86.1393 200.076 85.046C201.333 84.0073 202.426 82.8867 203.356 81.684C204.504 80.2627 205.542 78.7593 206.472 77.174C207.456 75.534 208.303 74.0307 209.014 72.664C209.287 72.2267 209.478 72.008 209.588 72.008C209.916 72.008 210.08 72.4727 210.08 73.402C210.08 73.8393 209.998 74.3587 209.834 74.96C209.724 75.5067 209.533 76.026 209.26 76.518C208.494 77.83 207.592 79.2787 206.554 80.864C205.515 82.4493 204.449 83.98 203.356 85.456C202.59 86.4947 201.579 87.6427 200.322 88.9C199.064 90.1573 197.725 91.2507 196.304 92.18C194.882 93.0547 193.516 93.492 192.204 93.492Z" fill="#2B1D14"/>
<path d="M81.268 128.432C79.252 128.432 77.32 128.168 75.472 127.64C73.624 127.088 72.136 126.38 71.008 125.516L72.988 121.124C74.068 121.892 75.34 122.528 76.804 123.032C78.292 123.512 79.792 123.752 81.304 123.752C82.456 123.752 83.38 123.644 84.076 123.428C84.796 123.188 85.324 122.864 85.66 122.456C85.996 122.048 86.164 121.58 86.164 121.052C86.164 120.38 85.9 119.852 85.372 119.468C84.844 119.06 84.148 118.736 83.284 118.496C82.42 118.232 81.46 117.992 80.404 117.776C79.372 117.536 78.328 117.248 77.272 116.912C76.24 116.576 75.292 116.144 74.428 115.616C73.564 115.088 72.856 114.392 72.304 113.528C71.776 112.664 71.512 111.56 71.512 110.216C71.512 108.776 71.896 107.468 72.664 106.292C73.456 105.092 74.632 104.144 76.192 103.448C77.776 102.728 79.756 102.368 82.132 102.368C83.716 102.368 85.276 102.56 86.812 102.944C88.348 103.304 89.704 103.856 90.88 104.6L89.08 109.028C87.904 108.356 86.728 107.864 85.552 107.552C84.376 107.216 83.224 107.048 82.096 107.048C80.968 107.048 80.044 107.18 79.324 107.444C78.604 107.708 78.088 108.056 77.776 108.488C77.464 108.896 77.308 109.376 77.308 109.928C77.308 110.576 77.572 111.104 78.1 111.512C78.628 111.896 79.324 112.208 80.188 112.448C81.052 112.688 82 112.928 83.032 113.168C84.088 113.408 85.132 113.684 86.164 113.996C87.22 114.308 88.18 114.728 89.044 115.256C89.908 115.784 90.604 116.48 91.132 117.344C91.684 118.208 91.96 119.3 91.96 120.62C91.96 122.036 91.564 123.332 90.772 124.508C89.98 125.684 88.792 126.632 87.208 127.352C85.648 128.072 83.668 128.432 81.268 128.432ZM114.125 128.432C112.181 128.432 110.369 128.12 108.689 127.496C107.033 126.848 105.593 125.936 104.369 124.76C103.145 123.584 102.185 122.204 101.489 120.62C100.817 119.036 100.481 117.296 100.481 115.4C100.481 113.504 100.817 111.764 101.489 110.18C102.185 108.596 103.145 107.216 104.369 106.04C105.617 104.864 107.069 103.964 108.725 103.34C110.381 102.692 112.193 102.368 114.161 102.368C116.345 102.368 118.313 102.752 120.065 103.52C121.841 104.264 123.329 105.368 124.529 106.832L120.785 110.288C119.921 109.304 118.961 108.572 117.905 108.092C116.849 107.588 115.697 107.336 114.449 107.336C113.273 107.336 112.193 107.528 111.209 107.912C110.225 108.296 109.373 108.848 108.653 109.568C107.933 110.288 107.369 111.14 106.961 112.124C106.577 113.108 106.385 114.2 106.385 115.4C106.385 116.6 106.577 117.692 106.961 118.676C107.369 119.66 107.933 120.512 108.653 121.232C109.373 121.952 110.225 122.504 111.209 122.888C112.193 123.272 113.273 123.464 114.449 123.464C115.697 123.464 116.849 123.224 117.905 122.744C118.961 122.24 119.921 121.484 120.785 120.476L124.529 123.932C123.329 125.396 121.841 126.512 120.065 127.28C118.313 128.048 116.333 128.432 114.125 128.432ZM130.818 128L142.05 102.8H147.81L159.078 128H152.958L143.742 105.752H146.046L136.794 128H130.818ZM136.434 122.6L137.982 118.172H150.942L152.526 122.6H136.434ZM167.813 128V102.8H172.637L187.505 120.944H185.165V102.8H190.925V128H186.137L171.233 109.856H173.573V128H167.813Z" fill="#2B1D14"/>
<path fill-rule="evenodd" clip-rule="evenodd" d="M243 38C243 56.7777 227.778 72 209 72V76C229.987 76 247 58.9868 247 38C247 17.0132 229.987 0 209 0C188.013 0 171 17.0132 171 38C171 42.3137 171.719 46.4596 173.043 50.3243H177.302C175.816 46.5032 175 42.3469 175 38C175 19.2223 190.222 4 209 4C227.778 4 243 19.2223 243 38Z" fill="#2B1D14"/>
<path d="M251.308 106.593C252.384 108.199 254.558 108.629 256.164 107.553C257.77 106.477 258.2 104.303 257.124 102.697L251.308 106.593ZM226.092 68.9478L251.308 106.593L257.124 102.697L231.908 65.0522L226.092 68.9478Z" fill="#2B1D14"/>
<path d="M216.781 15.9688V20.2518L210.156 26.8768V12.6562H206.844V26.8768L200.219 20.2518V15.9688H196.906V42.4688C196.911 45.2539 197.917 47.9445 199.742 50.0488C201.567 52.1531 204.087 53.5308 206.844 53.93V60.6875H210.156V53.93C212.913 53.5308 215.433 52.1531 217.258 50.0488C219.083 47.9445 220.089 45.2539 220.094 42.4688V15.9688H216.781ZM206.844 50.5827C204.975 50.1981 203.296 49.1812 202.089 47.7033C200.882 46.2253 200.222 44.3767 200.219 42.4688V38.1857L206.844 44.8107V50.5827ZM206.844 40.1268L200.219 33.5018V24.9357L206.844 31.5607V40.1268ZM210.156 31.5607L216.781 24.9357V33.5018L210.156 40.1268V31.5607ZM210.156 50.5827V44.8107L216.781 38.1857V42.4688C216.778 44.3767 216.118 46.2253 214.911 47.7033C213.704 49.1812 212.025 50.1981 210.156 50.5827Z" fill="#E3C26B"/>
<line x1="238.069" y1="58.881" x2="179.426" y2="17.8192" stroke="#2B1D14" stroke-width="2"/>
</svg>
